<svg xmlns="http://www.w3.org/2000/svg" width="32" height="32" viewBox="0 0 502 502" xml:space="preserve">
<g>
	<g>
		<g>
			<path style="fill:#000000;" d="M277.72,161.287c-4.962-11.288-16.219-25.197-42.221-13.767l-22.914,10.073l-21.834-49.668c-13.15-29.914-45.796-32.126-62.368-16.31c-11.998,11.451-17.455,29.705-9.563,47.657l77.437,177.259c-18.861-14.285-54.884-14.124-71.008,2.481l0.421-0.637c-17.126,17.637-14.258,42.636,11.729,64.478L276.079,492l198.672-87.338l1.081-17.311c2.812-45.041-5.197-90.1-23.358-131.413l-15.038-34.208c-0.78-1.773-1.633-3.506-2.556-5.193c-10.488-19.174-33.962-27.078-54.004-18.363l-14.929,6.492l-16.872-38.38c-7.384-16.797-27.068-24.438-43.812-16.932L277.72,161.287z"/>
			<path style="fill:#FFFFFF;" d="M461.63,251.914l-15.038-34.207c-0.89-2.026-1.879-4.035-2.938-5.968c-6.272-11.469-16.565-20.103-28.981-24.313c-12.377-4.196-25.794-3.636-37.784,1.578l-5.795,2.52l-7.405-16.845c-0.001-0.002-0.002-0.005-0.003-0.007l-5.456-12.41c-4.662-10.604-13.188-18.74-24.007-22.907c-10.766-4.146-22.478-3.845-32.987,0.846l-19.228,8.33c-3.557-5.06-7.877-8.921-12.914-11.528c-10.521-5.445-23.178-4.987-37.621,1.363l-13.759,6.048l-17.81-40.514c-7.25-16.493-20.706-27.81-36.916-31.05c-15.239-3.046-30.755,1.265-41.51,11.53c-16.139,15.402-20.776,38.528-11.822,58.895l67.466,154.435c-5.649-1.143-11.602-1.666-17.643-1.519c-15.691,0.387-29.8,5.377-39.247,13.79c-0.62,0.402-1.203,0.878-1.737,1.428c-9.494,9.777-14.174,21.604-13.537,34.201c0.797,15.743,9.79,31.268,26.006,44.898c0.082,0.069,0.165,0.137,0.25,0.203l138.681,109.147c1.794,1.413,3.979,2.142,6.186,2.142c1.362,0,2.732-0.278,4.023-0.846l198.672-87.337c3.425-1.505,5.723-4.797,5.956-8.531l1.081-17.312C488.713,341.548,480.351,294.499,461.63,251.914z M380.613,262.873c1.647,3.747,5.313,5.978,9.16,5.978c1.344,0,2.71-0.272,4.019-0.848c5.056-2.222,7.353-8.123,5.13-13.179l-19.779-44.992l5.722-2.488c15.467-6.727,33.2-0.713,41.244,13.994c0.783,1.431,1.514,2.916,2.173,4.416l15.039,34.208c17.441,39.676,25.233,83.511,22.532,126.766l-0.702,11.231L277.55,480.431L143.715,375.097c-11.612-9.796-18.28-20.623-18.78-30.498c-0.324-6.402,1.87-12.364,6.526-17.748c0.336-0.267,0.658-0.558,0.964-0.873c11.971-12.329,41.824-13.181,57.414-1.748l34.447,33.084c1.939,1.862,4.434,2.788,6.926,2.788c2.627,0,5.25-1.029,7.214-3.073c3.826-3.983,3.698-10.314-0.285-14.14l-33.516-32.191l-76.648-175.452c-6.717-15.28-0.627-28.821,7.313-36.398c5.953-5.682,15.066-8.129,23.782-6.386c9.87,1.973,17.87,8.893,22.527,19.486l58.06,132.072c1.647,3.747,5.313,5.978,9.16,5.978c1.344,0,2.71-0.272,4.019-0.848c5.056-2.223,7.353-8.123,5.13-13.179l-32.201-73.249l13.76-6.049c8.636-3.795,15.493-4.438,20.379-1.909c3.458,1.79,6.373,5.338,8.663,10.546l34.24,77.888c1.647,3.747,5.313,5.978,9.16,5.978c1.344,0,2.71-0.272,4.019-0.848c5.056-2.223,7.353-8.123,5.13-13.179l-30.194-68.685l18.32-7.937c0.039-0.017,0.077-0.033,0.115-0.051c5.625-2.521,11.904-2.685,17.681-0.46c5.809,2.237,10.385,6.602,12.886,12.292L380.613,262.873z"/>
		</g>
	</g>
</g>
</svg>